<svg xmlns="http://www.w3.org/2000/svg" xmlns:xlink="http://www.w3.org/1999/xlink" viewBox="0 0 500 500"><defs><style>.cls-1{fill:#4da09d;}.cls-2,.cls-5{fill:#42d3d8;}.cls-3{fill:url(#linear-gradient);}.cls-4{fill:url(#Degradado_sin_nombre_8);}.cls-5{font-size:38px;font-family:FredokaOne-Regular, Fredoka One;letter-spacing:0.15em;}.cls-6{letter-spacing:0.14em;}</style><linearGradient id="linear-gradient" x1="209.43" y1="262.96" x2="189.31" y2="288.82" gradientUnits="userSpaceOnUse"><stop offset="0" stop-color="#4285e9"/><stop offset="0.99" stop-color="#42d3d8"/></linearGradient><linearGradient id="Degradado_sin_nombre_8" x1="305.99" y1="217.08" x2="295.91" y2="227.63" gradientUnits="userSpaceOnUse"><stop offset="0" stop-color="#42d3d8"/><stop offset="0.99" stop-color="#11afb7"/></linearGradient></defs><title>logo</title><g id="OBJECTS"><path class="cls-1" d="M251.64,155.74a12.85,12.85,0,1,1-12.85,12.85,12.85,12.85,0,0,1,12.85-12.85Zm0-12.1a24.95,24.95,0,1,0,24.95,25,25,25,0,0,0-24.95-25Z"/><path class="cls-2" d="M197.59,174.62a12.86,12.86,0,1,1-1.71-14.52,5.81,5.81,0,0,0,6.45,1.67l.6-.23a5.73,5.73,0,0,0,2.38-9,24.93,24.93,0,1,0,3,27.73,6,6,0,0,0-5.3-8.68h-.13A5.89,5.89,0,0,0,197.59,174.62Z"/><path class="cls-2" d="M235,232.17l-24.65-24.65a29,29,0,0,0-41.07,0l-24.66,24.65a29.08,29.08,0,0,0,0,41.07l14.9,14.89,9.76,9.76a28.84,28.84,0,0,0,20.53,8.51q.6,0,1.17,0a28.84,28.84,0,0,0,19.37-8.48L235,273.24a26.64,26.64,0,0,0,2.58-3A29.08,29.08,0,0,0,235,232.17ZM218.7,257,194.05,281.6a6.35,6.35,0,0,1-1,.77,2.24,2.24,0,0,1-.36.21.66.66,0,0,1-.2.11,1.66,1.66,0,0,1-.33.16,2.52,2.52,0,0,1-.29.12l-.12,0-.09,0-.09,0a1.4,1.4,0,0,1-.29.09l-.13,0-.21.05a2.78,2.78,0,0,1-.49.08l-.28,0-.41,0h0a5.88,5.88,0,0,1-2.36-.5,5.77,5.77,0,0,1-1.87-1.26l-13.77-13.76L160.9,257a6,6,0,0,1,0-8.49l24.66-24.65a6,6,0,0,1,8.49,0l24.65,24.65a6,6,0,0,1,.62,7.73A4.8,4.8,0,0,1,218.7,257Z"/><path class="cls-3" d="M237.57,270.27a26.64,26.64,0,0,1-2.58,3l-24.65,24.65A28.84,28.84,0,0,1,191,306.37q-.57,0-1.17,0a28.84,28.84,0,0,1-20.53-8.51l-9.76-9.76a221.65,221.65,0,0,1,12.28-20.29l13.77,13.76a5.77,5.77,0,0,0,1.87,1.26,5.88,5.88,0,0,0,2.36.5h0l.41,0,.28,0,.49-.08.21-.05.13,0a1.4,1.4,0,0,0,.29-.09l.09,0,.09,0,.12,0a2.52,2.52,0,0,0,.29-.12,1.66,1.66,0,0,0,.33-.16.66.66,0,0,0,.2-.11,2.24,2.24,0,0,0,.36-.21,6.35,6.35,0,0,0,1-.77L218.7,257a4.8,4.8,0,0,0,.62-.76l4.93.76Z"/><path class="cls-1" d="M298.34,232.17l-24.66-24.65a29,29,0,0,0-41.07,0l-11.13,11.14L235,232.17a29,29,0,0,1,2.59,3l11.33-11.33a6,6,0,0,1,8.49,0L282,248.46a6,6,0,0,1,0,8.49L257.4,281.6a6,6,0,0,1-8.49,0l-11.33-11.32h0L224.25,257a5.93,5.93,0,0,1-1.74-4.41l-3.2-3.36a5.92,5.92,0,0,0-.62-.72l-3.05-3-.32-.33c-5.57-5.67-9.94-10-9.94-10h0a29.13,29.13,0,0,0,2.59,38.1l18.44,18.43,6.21,6.22a29,29,0,0,0,41.07,0l24.66-24.65A29.08,29.08,0,0,0,298.34,232.17Z"/><path class="cls-2" d="M362.24,232.16l-24.65-24.64a29,29,0,0,0-41.07,0L285.1,218.93l13.24,13.23a29,29,0,0,1,2.83,3.29l11.64-11.63a6,6,0,0,1,8.49,0l24.64,24.64a6,6,0,0,1,0,8.49L321.3,281.6a6,6,0,0,1-8.49,0l-10.45-10.44s0,0,0,0L301.17,270l-13-13a6,6,0,0,1-1.74-3.85c-1.23-1.29-2.47-2.57-3.69-3.82a5,5,0,0,0-.67-.82l-6.21-6.2-1.16-1.17L273.59,240c-2.06-2.08-3.6-3.61-4.23-4.23l-.33-.33h0A29.17,29.17,0,0,0,269,270a28.85,28.85,0,0,0,2.83,3.26l13.24,13.25,5.55,5.54,5.87,5.87a29,29,0,0,0,41.07,0l24.65-24.66A29.08,29.08,0,0,0,362.24,232.16Z"/><path class="cls-4" d="M317.05,222.06a5.93,5.93,0,0,0-4.24,1.76l-11.64,11.63a29,29,0,0,0-2.83-3.29L285.1,218.93l11.42-11.41a29,29,0,0,1,30.91-6.59C338.68,212,317.05,222.06,317.05,222.06Z"/><path class="cls-2" d="M305.69,162.56a12.85,12.85,0,1,1,1.71,14.51,5.82,5.82,0,0,0-6.45-1.66l-.59.22a5.73,5.73,0,0,0-2.39,9,24.94,24.94,0,1,0-3-27.73,6,6,0,0,0,5.3,8.68h.13A5.89,5.89,0,0,0,305.69,162.56Z"/></g><g id="TEXT"><text class="cls-5" transform="translate(22.44 355.43)">HUMAN RESOU<tspan class="cls-6" x="343.37" y="0">R</tspan><tspan x="372.66" y="0">CES</tspan></text></g></svg>